<svg id="search" xmlns="http://www.w3.org/2000/svg" xmlns:xlink="http://www.w3.org/1999/xlink" width="19" height="19" viewBox="0 0 19 19">
  <defs>
    <clipPath id="clip-path">
      <path id="Combined_Shape" data-name="Combined Shape" d="M14.482,15.6l-3.589-3.59a6.736,6.736,0,1,1,1.119-1.119l3.59,3.589a.792.792,0,0,1-1.12,1.12ZM1.583,6.729a5.144,5.144,0,0,0,8.755,3.665l.027-.028.028-.027a5.145,5.145,0,1,0-8.811-3.61Z" transform="translate(0 0)"/>
    </clipPath>
  </defs>
  <g transform="translate(1.583 1.583)">
    <path id="Combined_Shape-2" data-name="Combined Shape" d="M14.482,15.6l-3.589-3.59a6.736,6.736,0,1,1,1.119-1.119l3.59,3.589a.792.792,0,0,1-1.12,1.12ZM1.583,6.729a5.144,5.144,0,0,0,8.755,3.665l.027-.028.028-.027a5.145,5.145,0,1,0-8.811-3.61Z" transform="translate(0 0)"/>
    <g clip-path="url(#clip-path)">
      <g id="COLOR_black" data-name="COLOR/ black" transform="translate(-1.583 -1.583)">
        <rect id="Rectangle" width="19" height="19" fill="#9cafc3"/>
      </g>
    </g>
  </g>
</svg>
